<svg width="160" height="160" viewBox="0 0 160 160" fill="none" xmlns="http://www.w3.org/2000/svg">
<g clip-path="url(#clip0_385_1124)">
<rect x="-0.0551758" y="-0.055603" width="160.056" height="160.056" fill="url(#paint0_linear_385_1124)"/>
<path d="M126.653 83.6314C126.842 82.2304 126.637 80.8045 126.06 79.5137C125.484 78.2228 124.559 77.1181 123.39 76.3235C125.009 74.2235 126.048 71.7347 126.401 69.1067C126.401 62.028 119.759 59.9144 109.532 59.9144C103.451 59.9813 97.3957 60.6973 91.4679 62.0514C92.02 59.0177 96.0649 50.216 96.0649 47.2742C96.0649 41.1599 94.6171 33.4848 89.0088 30.5657C87.4452 29.664 85.6662 29.2035 83.8614 29.2333C81.6198 29.1279 79.4258 29.9024 77.748 31.3938C77.2339 32.3335 77.0175 33.4072 77.1273 34.4727L78.1394 45.9635C78.1394 55.1559 64.0046 66.6476 64.0046 79.8624V107.578C64.0046 112.497 70.6006 115.99 80.0925 115.99H106.407C113.301 115.99 114.841 114.795 116.611 111.577C117.218 110.558 117.527 109.388 117.502 108.202C117.477 107.016 117.121 105.86 116.472 104.867C118.09 104.262 119.531 103.262 120.664 101.957C121.796 100.652 122.583 99.0846 122.954 97.3973C123.361 95.3799 123.052 93.2821 122.08 91.4679C123.557 90.79 124.79 89.6747 125.612 88.2731C126.434 86.8715 126.806 85.2511 126.677 83.6314M40.7702 67.7049H48.9973C49.9027 67.7049 50.7993 67.8832 51.6358 68.2297C52.4723 68.5762 53.2324 69.0841 53.8726 69.7243C54.5128 70.3645 55.0207 71.1246 55.3672 71.9611C55.7137 72.7976 55.892 73.6942 55.892 74.5996V113.002C55.8918 114.83 55.1653 116.584 53.8723 117.877C52.5793 119.169 50.8258 119.896 48.9973 119.896H40.7702C38.9417 119.896 37.1882 119.169 35.8952 117.877C34.6022 116.584 33.8757 114.83 33.8755 113.002V74.6916C33.8755 72.863 34.6019 71.1093 35.8949 69.8163C37.1879 68.5233 38.9416 67.7969 40.7702 67.7969" fill="white"/>
</g>
<defs>
<linearGradient id="paint0_linear_385_1124" x1="75.2688" y1="-5.4879" x2="75.2688" y2="154.568" gradientUnits="userSpaceOnUse">
<stop stop-color="#37AEFF"/>
<stop offset="0.05" stop-color="#37AEFF"/>
<stop offset="1" stop-color="#1861F7"/>
</linearGradient>
<clipPath id="clip0_385_1124">
<rect width="160" height="160" fill="white"/>
</clipPath>
</defs>
</svg>
