<svg width="160" height="160" viewBox="0 0 160 160" fill="none" xmlns="http://www.w3.org/2000/svg">
<rect width="160" height="160" fill="url(#paint0_radial_385_1132)"/>
<path d="M31.9601 100.3L55.4601 63.02C56.3441 61.6164 57.5095 60.4114 58.8828 59.4809C60.256 58.5505 61.8073 57.9148 63.4385 57.6141C65.0698 57.3134 66.7457 57.3542 68.3605 57.7339C69.9752 58.1135 71.4937 58.8239 72.8201 59.82L91.5201 73.84C92.3549 74.465 93.3706 74.8011 94.4134 74.7975C95.4563 74.7939 96.4696 74.4507 97.3001 73.82L122.54 54.66C125.9 52.1 130.3 56.14 128.06 59.72L104.54 96.98C103.656 98.3835 102.491 99.5886 101.117 100.519C99.7441 101.449 98.1929 102.085 96.5616 102.386C94.9303 102.687 93.2544 102.646 91.6397 102.266C90.0249 101.886 88.5064 101.176 87.1801 100.18L68.4801 86.16C67.6453 85.535 66.6296 85.1988 65.5867 85.2024C64.5439 85.2061 63.5306 85.5492 62.7001 86.18L37.4601 105.34C34.1001 107.9 29.7001 103.88 31.9601 100.3Z" fill="white"/>
<defs>
<radialGradient id="paint0_radial_385_1132" cx="0" cy="0" r="1" gradientUnits="userSpaceOnUse" gradientTransform="translate(26.8 159.996) scale(176 175.995)">
<stop stop-color="#0099FF"/>
<stop offset="0.6" stop-color="#A033FF"/>
<stop offset="0.9" stop-color="#FF5280"/>
<stop offset="1" stop-color="#FF7061"/>
</radialGradient>
</defs>
</svg>
